<?xml version="1.0" encoding="UTF-8"?>
<svg version="1.1" xmlns="http://www.w3.org/2000/svg" width="500" height="500">
<path d="M0 0 C165 0 330 0 500 0 C500 165 500 330 500 500 C335 500 170 500 0 500 C0 335 0 170 0 0 Z " fill="#FEFEFE" transform="translate(0,0)"/>
<path d="M0 0 C17.49661157 7.40813979 28.98780224 22.69152188 36 40 C36.38744385 40.93803467 36.38744385 40.93803467 36.78271484 41.89501953 C48.06965417 70.8844032 41.62721682 109.23621818 30 137 C27.59282812 142.4757202 24.90896509 147.77515978 22 153 C21.44699219 153.99386719 20.89398438 154.98773438 20.32421875 156.01171875 C6.62525376 178.9305122 -15.63747231 192.41959628 -41 199 C-54.44366416 202.37860507 -70.58392993 202.65373823 -84 199 C-85.22847656 198.67 -86.45695312 198.34 -87.72265625 198 C-114.72301968 190.34717631 -135.93463957 174.01707945 -149.9375 149.625 C-161.32612277 128.02588786 -164.65521792 104.89955629 -160 81 C-159.67 81 -159.34 81 -159 81 C-158.84144531 82.06476563 -158.68289062 83.12953125 -158.51953125 84.2265625 C-154.62205944 109.03806941 -144.16635403 131.86940921 -123.6171875 147.19921875 C-114.45964981 153.5001514 -105.56504433 158.46487702 -95 162 C-94.08992188 162.30808594 -93.17984375 162.61617187 -92.2421875 162.93359375 C-70.19109137 169.98050368 -45.44272327 166.27698665 -25.01171875 156.07421875 C-18.62848067 152.69709331 -12.86560779 149.2399886 -9 143 C-8.38125 142.01 -7.7625 141.02 -7.125 140 C-2.79415498 128.03736101 -7.03257371 116.60110049 -11.37109375 105.43359375 C-13.8867202 98.81973046 -14.1582004 92.68725097 -14.125 85.6875 C-14.12886719 84.88376953 -14.13273438 84.08003906 -14.13671875 83.25195312 C-14.11831059 71.81128128 -13.19024747 60.77526514 -5 52 C-0.125 52.875 -0.125 52.875 1 54 C1.12213755 56.15914992 1.17980155 58.32199748 1.2109375 60.484375 C1.2390223 61.8255327 1.26768686 63.16667836 1.296875 64.5078125 C1.3380297 66.62532 1.37490763 68.74260669 1.40136719 70.86035156 C1.42910147 72.90216855 1.47498744 74.94295817 1.5234375 76.984375 C1.54325684 78.20866211 1.56307617 79.43294922 1.58349609 80.69433594 C2.02628538 84.20861905 2.96192744 86.14223104 5 89 C10.1138765 88.71477792 10.1138765 88.71477792 14.25 85.9375 C22.26099745 72.49046857 21.52735254 54.82590365 18 40 C14.76319039 29.29071196 9.78659973 19.87981002 2.0625 11.75 C-0.61682029 8.84290752 -0.97258737 8.21587445 -1.5 4.0625 C-1 1 -1 1 0 0 Z " fill="#1A40A0" transform="translate(311,124)"/>
<path d="M0 0 C4.3425946 2.58725464 7.50088452 5.99318722 10.4140625 10.08984375 C10.4140625 10.74984375 10.4140625 11.40984375 10.4140625 12.08984375 C11.0740625 12.08984375 11.7340625 12.08984375 12.4140625 12.08984375 C12.6925 11.03796875 12.6925 11.03796875 12.9765625 9.96484375 C15.46531001 4.98734873 20.21171901 1.0985778 25.4140625 -0.91015625 C33.26041733 -1.74117413 40.98457187 -1.96635762 47.4140625 3.08984375 C52.58443427 7.93366572 55.5525434 13.25309114 55.8515625 20.33984375 C55.27879983 37.29361887 41.18329755 50.77502805 29.55371094 61.75927734 C26.87704479 64.24475305 24.15628001 66.6770895 21.4140625 69.08984375 C20.62257813 69.79238281 19.83109375 70.49492187 19.015625 71.21875 C18.00628906 72.05212891 18.00628906 72.05212891 16.9765625 72.90234375 C16.42097656 73.36253906 15.86539063 73.82273437 15.29296875 74.296875 C12.26383078 75.57528458 10.53663666 75.05878798 7.4140625 74.08984375 C4.8239378 72.38287729 2.57549072 70.36740077 0.2890625 68.27734375 C-0.36328369 67.6942041 -1.01562988 67.11106445 -1.68774414 66.51025391 C-3.67119003 64.72135827 -5.63246409 62.91138649 -7.5859375 61.08984375 C-8.44372803 60.29199463 -8.44372803 60.29199463 -9.31884766 59.47802734 C-20.45922843 49.00493502 -32.45759981 36.47424647 -33.1484375 20.33984375 C-32.81693729 14.27687931 -31.12558632 9.73555679 -26.90234375 5.3359375 C-19.32779511 -1.42414355 -9.82040493 -3.45642651 0 0 Z " fill="#489AD8" transform="translate(238.5859375,191.91015625)"/>
<path d="M0 0 C5.28957802 4.45608747 10.12346817 9.18893267 14.34130859 14.68701172 C10.7177954 14.68701172 9.21410621 13.66706733 6.09130859 11.87451172 C-8.59523382 3.70464192 -23.64621751 1.29714245 -40.22119141 5.18701172 C-57.5929942 10.36584414 -71.42718305 21.43565731 -80.12744141 37.37841797 C-84.79079227 46.90846348 -85.81476436 55.8950812 -85.90869141 66.37451172 C-85.91811768 67.17050781 -85.92754395 67.96650391 -85.93725586 68.78662109 C-85.86455823 81.98741357 -80.52198873 94.2363055 -72.65869141 104.68701172 C-72.20880859 105.30189453 -71.75892578 105.91677734 -71.29541016 106.55029297 C-67.23659017 111.70670934 -62.12433857 115.1332609 -56.65869141 118.68701172 C-61.1974001 120.19991462 -63.99285969 118.26619283 -68.25634766 116.40576172 C-86.15744917 107.36272536 -97.89827362 93.36814904 -104.78369141 74.62451172 C-106.77780291 67.92999453 -106.87283141 61.43393931 -106.90869141 54.49951172 C-106.92931641 53.52175781 -106.94994141 52.54400391 -106.97119141 51.53662109 C-107.05918115 34.8955616 -99.87364697 19.79237963 -88.65869141 7.68701172 C-88.02833984 7.00251953 -87.39798828 6.31802734 -86.74853516 5.61279297 C-64.34991554 -16.35425402 -24.95518872 -19.75404842 0 0 Z " fill="#1E9DE4" transform="translate(271.65869140625,153.31298828125)"/>
<path d="M0 0 C4.3425946 2.58725464 7.50088452 5.99318722 10.4140625 10.08984375 C10.4140625 10.74984375 10.4140625 11.40984375 10.4140625 12.08984375 C11.0740625 12.08984375 11.7340625 12.08984375 12.4140625 12.08984375 C12.6925 11.03796875 12.6925 11.03796875 12.9765625 9.96484375 C15.46531001 4.98734873 20.21171901 1.0985778 25.4140625 -0.91015625 C33.26041733 -1.74117413 40.98457187 -1.96635762 47.4140625 3.08984375 C52.58443427 7.93366572 55.5525434 13.25309114 55.8515625 20.33984375 C55.49206802 30.98088026 50.15294915 39.11941519 43.4140625 47.08984375 C42.4240625 47.74984375 41.4340625 48.40984375 40.4140625 49.08984375 C41.52099447 46.27993952 42.66514645 43.59733293 44.0390625 40.90234375 C46.24639326 35.6684667 46.55437332 30.16762711 44.5703125 24.8125 C41.70956064 19.6225549 38.1028394 16.73713346 32.4140625 15.08984375 C27.31907162 14.15457445 23.53786089 14.67364358 19.0390625 17.27734375 C15.88979458 19.46433536 14.18053991 21.65502656 12.4140625 25.08984375 C11.7540625 25.08984375 11.0940625 25.08984375 10.4140625 25.08984375 C9.8778125 24.18234375 9.3415625 23.27484375 8.7890625 22.33984375 C6.19882843 18.30634273 2.93018037 16.52061384 -1.5859375 15.08984375 C-6.58704714 14.15595417 -10.44621696 14.65777863 -14.8984375 17.15234375 C-19.36316039 20.333793 -21.9867697 23.73824885 -22.9609375 29.1875 C-23.38172459 36.64332117 -20.63849943 43.2390633 -16.3359375 49.21484375 C-15.7584375 49.83359375 -15.1809375 50.45234375 -14.5859375 51.08984375 C-14.9159375 51.74984375 -15.2459375 52.40984375 -15.5859375 53.08984375 C-24.28115927 43.95324017 -32.46698226 33.63961664 -33.0234375 20.58984375 C-32.8167818 14.36434068 -31.24005219 9.85480314 -26.90234375 5.3359375 C-19.32779511 -1.42414355 -9.82040493 -3.45642651 0 0 Z " fill="#1A40A0" transform="translate(238.5859375,191.91015625)"/>
<path d="M0 0 C2.97 0 5.94 0 9 0 C10.17466466 3.08049814 11.33995131 6.16400175 12.5 9.25 C12.83386719 10.12269531 13.16773438 10.99539063 13.51171875 11.89453125 C13.98544922 13.16103516 13.98544922 13.16103516 14.46875 14.453125 C14.76201172 15.22817383 15.05527344 16.00322266 15.35742188 16.80175781 C16 19 16 19 16 23 C16.66 23 17.32 23 18 23 C18.10183594 22.01902344 18.20367187 21.03804688 18.30859375 20.02734375 C18.93791926 15.62206517 20.43669402 11.68548362 22.0625 7.5625 C22.34416016 6.83095703 22.62582031 6.09941406 22.91601562 5.34570312 C23.60413247 3.56126454 24.30114606 1.78026095 25 0 C27.97 0 30.94 0 34 0 C34 11.22 34 22.44 34 34 C31.69 34 29.38 34 27 34 C26.67 27.07 26.34 20.14 26 13 C23.89838351 19.52970475 23.89838351 19.52970475 21.84301758 26.07397461 C21.57126709 26.88358643 21.2995166 27.69319824 21.01953125 28.52734375 C20.75245361 29.35999756 20.48537598 30.19265137 20.21020508 31.05053711 C19 33 19 33 16.3737793 33.77954102 C15.59043213 33.85229248 14.80708496 33.92504395 14 34 C13.79318604 33.40461426 13.58637207 32.80922852 13.37329102 32.19580078 C12.43775366 29.50504717 11.50015265 26.81501718 10.5625 24.125 C10.23701172 23.18785156 9.91152344 22.25070312 9.57617188 21.28515625 C9.10727539 19.94130859 9.10727539 19.94130859 8.62890625 18.5703125 C8.1968689 17.32918701 8.1968689 17.32918701 7.75610352 16.06298828 C7.03552089 13.97762032 7.03552089 13.97762032 6 12 C5.67 19.26 5.34 26.52 5 34 C3.35 34 1.7 34 0 34 C0 22.78 0 11.56 0 0 Z " fill="#243C79" transform="translate(125,345)"/>
<path d="M0 0 C1.98 0 3.96 0 6 0 C6.33 11.88 6.66 23.76 7 36 C4 36 1 36 -2 36 C-3.299375 36.0825 -4.59875 36.165 -5.9375 36.25 C-9.03971636 36.25 -9.77705668 36.16427402 -12.375 34.25 C-15.67922731 29.67491603 -16.58874778 26.78935319 -16 21 C-14.68013269 17.62549388 -13.04824263 14.80365268 -10.125 12.5625 C-6.60486143 11.63069861 -3.30119551 11.34940224 0 13 C0 8.71 0 4.42 0 0 Z " fill="#263D7A" transform="translate(201,343)"/>
<path d="M0 0 C7.12496781 2.08074281 13.86954996 5.97630636 18.4921875 11.91796875 C23.52499419 21.37886505 24.46429446 31.73367979 24.3125 42.25 C24.31733398 43.94769531 24.31733398 43.94769531 24.32226562 45.6796875 C24.28482295 51.49351348 23.98784704 56.51956115 22 62 C21.67 62 21.34 62 21 62 C20.90203125 60.77925781 20.8040625 59.55851562 20.703125 58.30078125 C19.08217681 39.79935399 14.98173793 24.73800035 1.85546875 10.99609375 C-0.56145011 8.39599788 -0.97844179 7.52817623 -1.125 3.9375 C-1 1 -1 1 0 0 Z " fill="#2247A3" transform="translate(304,141)"/>
<path d="M0 0 C3.59500946 2.78796652 4.70824448 4.22081232 5.4375 8.66796875 C5.6355349 13.25371448 5.51618802 16.13968663 3.125 20.125 C-0.57202136 23.38707767 -3.62548106 23.52771112 -8.4453125 23.46484375 C-12.20761847 22.78026514 -13.82042327 21.1916503 -16 18.1328125 C-17.76543727 14.36746582 -17.86588319 11.03589623 -17 7 C-13.09434623 -0.6718199 -8.06513949 -2.38222981 0 0 Z " fill="#223A78" transform="translate(261,356)"/>
<path d="M0 0 C2.39410657 1.86208289 3.32376588 2.88709454 4.25 5.75 C4.4375 8.4375 4.4375 8.4375 4.25 10.75 C3.25 11.75 3.25 11.75 0.08984375 11.84765625 C-1.84181641 11.83025391 -1.84181641 11.83025391 -3.8125 11.8125 C-5.10285156 11.80347656 -6.39320313 11.79445313 -7.72265625 11.78515625 C-8.72167969 11.77355469 -9.72070312 11.76195312 -10.75 11.75 C-9.02516667 16.19652632 -9.02516667 16.19652632 -5.3125 18.6875 C-2.87833535 18.74686987 -1.04985308 18.51661769 1.25 17.75 C1.91 18.74 2.57 19.73 3.25 20.75 C-1.19059544 23.71039696 -5.54707298 23.64758098 -10.75 22.75 C-13.69182372 20.66514232 -15.14611143 17.95777714 -16.75 14.75 C-17.34639589 8.66676192 -16.17872436 5.60735952 -12.75 0.75 C-8.81768584 -2.26477419 -4.38343549 -1.99247068 0 0 Z " fill="#253D7A" transform="translate(178.75,356.25)"/>
<path d="M0 0 C3.4375 2 3.4375 2 6 5 C6.50159903 7.85647449 6.2978711 10.07093421 6 13 C1.38 13 -3.24 13 -8 13 C-7.34 15.31 -6.68 17.62 -6 20 C-2.4780279 20.08004482 0.61981469 20.04005702 4 19 C4.33 20.32 4.66 21.64 5 23 C1.04352612 24.97823694 -3.6982418 24.56487734 -8 24 C-11.41311667 21.47429367 -12.66637768 20.00086696 -14 16 C-14.50154202 9.8811874 -14.07788705 6.89346446 -10 2 C-6.23124125 -0.51250583 -4.46849866 -0.53016086 0 0 Z " fill="#243C79" transform="translate(334,355)"/>
<path d="M0 0 C2.0745356 0.1490712 2.0745356 0.1490712 4 -1 C7.35585244 -1.36476657 9.29134227 -1.44830856 12.1796875 0.37890625 C15.01014251 4.45451851 14.42592333 8.41887464 14.25 13.25 C14.23195313 14.18585938 14.21390625 15.12171875 14.1953125 16.0859375 C14.14825673 18.39167015 14.08253713 20.69530945 14 23 C12.02 23 10.04 23 8 23 C7.67 17.06 7.34 11.12 7 5 C5.02 5.33 3.04 5.66 1 6 C0.67 11.61 0.34 17.22 0 23 C-1.65 23 -3.3 23 -5 23 C-5.33 15.41 -5.66 7.82 -6 0 C-3.48314464 -1.25842768 -2.63419763 -0.74086808 0 0 Z " fill="#233B79" transform="translate(302,356)"/>
<path d="M0 0 C1.66137695 1.21801758 1.66137695 1.21801758 3 3 C3.34057617 5.26831055 3.34057617 5.26831055 3.29296875 7.88671875 C3.28330078 8.82451172 3.27363281 9.76230469 3.26367188 10.72851562 C3.23853516 11.70498047 3.21339844 12.68144531 3.1875 13.6875 C3.16719727 15.16959961 3.16719727 15.16959961 3.14648438 16.68164062 C3.11112203 19.12164231 3.06177033 21.56054719 3 24 C1.35 24 -0.3 24 -2 24 C-2.33 18.06 -2.66 12.12 -3 6 C-4.65 6 -6.3 6 -8 6 C-10.11925604 8.11925604 -9.41831017 12.6196093 -9.5625 15.5625 C-9.60568359 16.36880859 -9.64886719 17.17511719 -9.69335938 18.00585938 C-9.79975262 20.00368805 -9.90040888 22.0018207 -10 24 C-11.98 24 -13.96 24 -16 24 C-16.33 16.41 -16.66 8.82 -17 1 C-15.02 1 -13.04 1 -11 1 C-11 1.66 -11 2.32 -11 3 C-10.29875 2.505 -9.5975 2.01 -8.875 1.5 C-5.56074794 -0.22917499 -3.68722891 -0.4809429 0 0 Z " fill="#213977" transform="translate(287,355)"/>
<path d="M0 0 C2.4375 1.5 2.4375 1.5 4 3 C3.01 4.485 3.01 4.485 2 6 C-0.64 5.67 -3.28 5.34 -6 5 C-8.46751239 8.70126859 -8.30721156 10.62223532 -8 15 C-7.34 16.32 -6.68 17.64 -6 19 C-3.03 19 -0.06 19 3 19 C3.33 20.32 3.66 21.64 4 23 C0.04603037 24.97698481 -4.70119353 24.57069292 -9 24 C-11.89683868 21.7984026 -13.39297231 20.21405538 -15 17 C-15.43281664 12.76339098 -15.44858706 9.08605289 -13.8125 5.125 C-9.77690599 0.39361392 -6.16512632 -0.67255924 0 0 Z " fill="#273E7B" transform="translate(358,355)"/>
<path d="M0 0 C2.4375 1.5 2.4375 1.5 4 3 C3.01 4.485 3.01 4.485 2 6 C-0.64 5.67 -3.28 5.34 -6 5 C-8.46751239 8.70126859 -8.30721156 10.62223532 -8 15 C-7.34 16.32 -6.68 17.64 -6 19 C-3.03 19 -0.06 19 3 19 C3.33 20.32 3.66 21.64 4 23 C0.04603037 24.97698481 -4.70119353 24.57069292 -9 24 C-11.89683868 21.7984026 -13.39297231 20.21405538 -15 17 C-15.43281664 12.76339098 -15.44858706 9.08605289 -13.8125 5.125 C-9.77690599 0.39361392 -6.16512632 -0.67255924 0 0 Z " fill="#273E7B" transform="translate(238,355)"/>
<path d="M0 0 C1.32 0 2.64 0 4 0 C3.67 2.31 3.34 4.62 3 7 C4.98 7 6.96 7 9 7 C8.67 7.99 8.34 8.98 8 10 C6.35 10 4.7 10 3 10 C3.33 14.95 3.66 19.9 4 25 C5.65 25.33 7.3 25.66 9 26 C9 27.32 9 28.64 9 30 C7.54207116 30.05399736 6.08357288 30.09279177 4.625 30.125 C3.40683594 30.15980469 3.40683594 30.15980469 2.1640625 30.1953125 C0 30 0 30 -2 28 C-2.22705078 26.12060547 -2.22705078 26.12060547 -2.1953125 23.8671875 C-2.18886719 23.06152344 -2.18242187 22.25585938 -2.17578125 21.42578125 C-2.15902344 20.58402344 -2.14226562 19.74226563 -2.125 18.875 C-2.11597656 18.02550781 -2.10695313 17.17601562 -2.09765625 16.30078125 C-2.07405647 14.20040116 -2.03818483 12.10016556 -2 10 C-3.32 10 -4.64 10 -6 10 C-6 9.01 -6 8.02 -6 7 C-5.01 6.67 -4.02 6.34 -3 6 C-1.29144978 2.99992729 -1.29144978 2.99992729 0 0 Z " fill="#1E3676" transform="translate(369,349)"/>
<path d="M0 0 C2.9375 0.375 2.9375 0.375 6 1 C7.29004296 3.58008592 7.20410224 5.55741574 7.25 8.4375 C7.28867187 9.88962891 7.28867187 9.88962891 7.328125 11.37109375 C7 14 7 14 5.64453125 15.8515625 C4 17 4 17 1.4375 16.9375 C-1 16 -1 16 -2.3125 14.4375 C-3.30349235 10.92398167 -3.51189328 7.62034667 -3 4 C-1.5 1.5 -1.5 1.5 0 0 Z " fill="#F3F5F8" transform="translate(253,359)"/>
<path d="M0 0 C1.98 0 3.96 0 6 0 C6 7.59 6 15.18 6 23 C4.02 23 2.04 23 0 23 C0 15.41 0 7.82 0 0 Z " fill="#273E7B" transform="translate(213,356)"/>
<path d="M0 0 C2.375 0.75 2.375 0.75 3.375 1.75 C3.4739294 3.91480797 3.504711 6.08293785 3.5 8.25 C3.50257813 9.4359375 3.50515625 10.621875 3.5078125 11.84375 C3.375 14.75 3.375 14.75 2.375 15.75 C-0.5625 16 -0.5625 16 -3.625 15.75 C-5.77053377 12.53169935 -5.92083868 11.48213493 -5.9375 7.75 C-5.95425781 6.88375 -5.97101563 6.0175 -5.98828125 5.125 C-5.625 2.75 -5.625 2.75 -4.26953125 0.921875 C-2.625 -0.25 -2.625 -0.25 0 0 Z " fill="#F7F8FA" transform="translate(197.625,359.25)"/>
<path d="M0 0 C1.67542976 0.28604898 3.34385343 0.61781233 5 1 C5 2.65 5 4.3 5 6 C2.625 6.625 2.625 6.625 0 7 C-0.66 6.34 -1.32 5.68 -2 5 C-1.46428571 1.46428571 -1.46428571 1.46428571 0 0 Z " fill="#273F7B" transform="translate(214,344)"/>
<path d="M0 0 C1.67542976 0.28604898 3.34385343 0.61781233 5 1 C5.33 2.32 5.66 3.64 6 5 C3.36 5 0.72 5 -2 5 C-1.125 1.125 -1.125 1.125 0 0 Z " fill="#F1F3F6" transform="translate(171,359)"/>
<path d="M0 0 C1.67542976 0.28604898 3.34385343 0.61781233 5 1 C5 2.32 5 3.64 5 5 C2.36 5 -0.28 5 -3 5 C-1.125 1.125 -1.125 1.125 0 0 Z " fill="#F3F4F7" transform="translate(329,359)"/>
</svg>
